<?xml version="1.0" encoding="utf-8"?>
<!-- Generator: Adobe Illustrator 18.0.0, SVG Export Plug-In . SVG Version: 6.00 Build 0)  -->
<!DOCTYPE svg PUBLIC "-//W3C//DTD SVG 1.1//EN" "http://www.w3.org/Graphics/SVG/1.1/DTD/svg11.dtd">
<svg version="1.1" id="图层_1" xmlns="http://www.w3.org/2000/svg" xmlns:xlink="http://www.w3.org/1999/xlink" x="0px" y="0px"
	 viewBox="0 0 1440 500" enable-background="new 0 0 1440 500" xml:space="preserve">
<path fill="#FCD133" d="M865.8,333.3c-27.1,0-51,13.5-66.7,33.3l-158.3-84.4c4.2-9.4,6.2-20.8,6.2-32.3c0-11.5-2.1-21.9-6.2-31.2
	l159.4-84.4c15.6,19.8,38.5,32.3,65.6,32.3c45.8,0,83.3-37.5,83.3-83.3S911.7,0,865.8,0c-45.8,0-83.3,37.5-83.3,83.3
	c0,8.3,1,15.6,3.1,22.9l-161.5,86.5c-15.6-15.6-36.5-26-60.4-26c-45.8,0-83.3,37.5-83.3,83.3s37.5,83.3,83.3,83.3
	c22.9,0,44.8-9.4,59.4-25l162.5,86.5c-2.1,6.2-3.1,14.6-3.1,21.9c0,45.8,37.5,83.3,83.3,83.3c45.8,0,83.3-37.5,83.3-83.3
	S911.7,333.3,865.8,333.3z"/>
</svg>
